<svg width="31" height="32" viewBox="0 0 31 32" fill="none" xmlns="http://www.w3.org/2000/svg">
<path d="M17 24.5C17 28.366 20.134 31.5 24 31.5C27.866 31.5 31 28.366 31 24.5C31 20.634 27.866 17.5 24 17.5H17V24.5Z" fill="#EEF0F4" fill-opacity="0.8"/>
<path d="M14 24.5C14 28.366 10.866 31.5 7 31.5C3.13401 31.5 0 28.366 0 24.5C0 20.634 3.13401 17.5 7 17.5H14V24.5Z" fill="#EEF0F4" fill-opacity="0.8"/>
<path d="M17 7.5C17 3.63401 20.134 0.5 24 0.5C27.866 0.5 31 3.63401 31 7.5C31 11.366 27.866 14.5 24 14.5H17V7.5Z" fill="#EEF0F4" fill-opacity="0.8"/>
<path d="M14 7.5C14 3.63401 10.866 0.5 7 0.5C3.13401 0.5 0 3.63401 0 7.5C0 11.366 3.13401 14.5 7 14.5H14V7.5Z" fill="#EEF0F4" fill-opacity="0.8"/>
</svg>
