<?xml version="1.0" encoding="UTF-8"?>
<svg id="Layer_1" data-name="Layer 1" xmlns="http://www.w3.org/2000/svg" viewBox="0 0 1227.69 1225.46">
  <defs>
    <style>
      .cls-1 {
        fill: #fff;
      }
    </style>
  </defs>
  <path class="cls-1" d="m577.85,577.85h-288.92C129.36,577.85,0,448.49,0,288.92h0C0,129.36,129.36,0,288.92,0h0c159.57,0,288.92,129.36,288.92,288.92v288.92Z"/>
  <path class="cls-1" d="m937.65,575.62h-287.81v-287.81C649.85,128.86,778.7,0,937.65,0h0c158.95,0,287.81,128.86,287.81,287.81h0c0,158.95-128.86,287.81-287.81,287.81Z"/>
  <path class="cls-1" d="m290.77,1225.46h0C131.2,1225.46,1.85,1096.11,1.85,936.54h0c0-159.57,129.36-288.92,288.92-288.92h288.92v288.92c0,159.57-129.36,288.92-288.92,288.92Z"/>
  <path class="cls-1" d="m938.77,1225.46h0c-159.57,0-288.92-129.36-288.92-288.92v-288.92h288.92c159.57,0,288.92,129.36,288.92,288.92h0c0,159.57-129.36,288.92-288.92,288.92Z"/>
</svg>